<?xml version="1.0" encoding="UTF-8"?>
<svg xmlns="http://www.w3.org/2000/svg" xmlns:xlink="http://www.w3.org/1999/xlink" width="447px" height="447px" viewBox="0 0 447 446" version="1.1">
<g id="surface1">
<path style=" stroke:none;fill-rule:evenodd;fill:rgb(99.607843%,0%,0%);fill-opacity:1;" d="M 213.210938 0.191406 C 192.234375 0.941406 168.339844 5.652344 147.714844 13.105469 C 143.695312 14.558594 136.261719 17.507812 133.597656 18.707031 C 132.714844 19.105469 130.6875 20.019531 129.085938 20.746094 C 127.484375 21.46875 124.144531 23.105469 121.664062 24.382812 C 97.398438 36.882812 76.074219 53.164062 57.777344 73.148438 C 23.785156 110.289062 3.453125 158.511719 0.289062 209.515625 C -0.144531 216.527344 -0.078125 232.300781 0.414062 238.296875 C 2.769531 267.007812 8.648438 290.347656 19.707031 314.914062 C 38.867188 357.457031 72.230469 393.945312 113.222656 417.183594 C 130.207031 426.808594 151.539062 435.28125 169.734375 439.625 C 182.703125 442.71875 193.542969 444.441406 206.660156 445.492188 C 214.171875 446.089844 231.605469 446.179688 238.386719 445.652344 C 263.042969 443.738281 284.246094 438.949219 305.628906 430.46875 C 330.101562 420.765625 351.3125 407.753906 371.707031 389.945312 C 376.210938 386.011719 386.160156 376.078125 390.652344 371.027344 C 416.917969 341.503906 434.835938 305.585938 442.585938 266.9375 C 448.273438 238.574219 448.460938 210.910156 443.167969 182.183594 C 437.667969 152.335938 426.335938 124.550781 409.3125 99.171875 C 390.925781 71.757812 366.851562 48.84375 338.636719 31.914062 C 315.789062 18.203125 290.753906 8.636719 265.167969 3.832031 C 248.058594 0.625 232.214844 -0.488281 213.210938 0.191406 M 211.609375 8.050781 C 199.863281 8.65625 184.234375 10.980469 172.601562 13.847656 C 155.207031 18.144531 142.199219 22.933594 126.464844 30.839844 C 99.59375 44.34375 76.371094 62.867188 57.023438 86.234375 C 46.933594 98.417969 38.46875 111.390625 31.125 125.921875 C 19.789062 148.339844 13.097656 170.015625 9.761719 195.121094 C 8.257812 206.421875 7.679688 219.386719 8.136719 231.398438 C 8.5 240.839844 8.792969 244.144531 10.050781 252.980469 C 12.988281 273.628906 18.160156 291.621094 26.6875 310.839844 C 45.597656 353.484375 79.09375 389.632812 120.644531 412.234375 C 135.828125 420.496094 153.566406 427.394531 170.5 431.625 C 191.753906 436.9375 211.308594 438.78125 235.332031 437.75 C 260.992188 436.644531 288.097656 430.039062 312.761719 418.871094 C 332.484375 409.941406 350.933594 397.851562 367.4375 383.039062 C 373.824219 377.308594 377.5625 373.601562 382.777344 367.828125 C 390.066406 359.761719 395.855469 352.4375 401.738281 343.84375 C 421.921875 314.347656 434.691406 278.988281 437.914062 243.675781 C 440.253906 218.035156 438.484375 194.503906 432.375 170.175781 C 427.996094 152.730469 421.433594 136.132812 412.234375 119.234375 C 397.398438 91.980469 374.746094 66.566406 348.683594 47.945312 C 322.359375 29.136719 291.445312 16.207031 260.511719 11.074219 C 242.425781 8.070312 228.21875 7.191406 211.609375 8.050781 M 214.652344 21.117188 C 187.648438 22.007812 159.257812 29.25 133.742188 41.765625 C 102.253906 57.207031 73.984375 82.121094 54.574219 111.527344 C 31.679688 146.21875 20.195312 185.664062 21.046875 226.667969 C 21.457031 246.46875 23.949219 262.589844 29.429688 281.003906 C 42.941406 326.355469 72.457031 365.796875 112.640625 392.1875 C 140.011719 410.164062 171.523438 421.125 204.949219 424.289062 C 211.726562 424.929688 234.074219 425.027344 239.988281 424.441406 C 265.179688 421.949219 285.46875 416.695312 306.855469 407.125 C 337.324219 393.488281 364.726562 371.5625 385.230469 344.40625 C 405.738281 317.25 418.882812 285.792969 423.804688 252.109375 C 425.09375 243.273438 425.59375 236.886719 425.757812 227.105469 C 426.164062 203.09375 423.050781 181.949219 415.886719 160.085938 C 412.714844 150.394531 407.351562 137.515625 403.636719 130.671875 C 403.089844 129.65625 402.082031 127.78125 401.394531 126.503906 C 399.089844 122.195312 395.1875 115.777344 391.898438 110.894531 C 375.65625 86.753906 355.773438 67.507812 330.5625 51.519531 C 323.519531 47.054688 311.074219 40.585938 302.863281 37.121094 C 283.753906 29.058594 264.714844 24.144531 244.210938 21.980469 C 238.929688 21.421875 226.328125 20.769531 222.671875 20.863281 C 221.789062 20.886719 218.183594 21 214.652344 21.117188 M 210.152344 42.652344 C 175.652344 45.152344 142.238281 57.722656 114.433594 78.664062 C 87.316406 99.089844 66.238281 127.101562 54.101562 158.847656 C 53.574219 160.222656 53.265625 160.667969 52.835938 160.667969 C 52.15625 160.667969 47.78125 159.667969 45.0625 158.894531 C 43.996094 158.589844 43.046875 158.339844 42.957031 158.339844 C 42.863281 158.339844 42.578125 158.832031 42.320312 159.429688 C 41.769531 160.722656 37.265625 173.636719 37.074219 174.476562 C 36.960938 174.972656 37.464844 175.304688 40.515625 176.730469 C 42.480469 177.648438 44.839844 178.726562 45.761719 179.125 C 46.710938 179.535156 47.433594 180.035156 47.433594 180.277344 C 47.433594 180.511719 47.113281 181.988281 46.722656 183.550781 C 46.332031 185.117188 45.859375 187.167969 45.675781 188.109375 L 45.339844 189.820312 L 41.511719 189.578125 C 39.40625 189.441406 36.964844 189.328125 36.082031 189.320312 L 34.484375 189.304688 L 33.824219 193.085938 C 33.464844 195.164062 32.777344 198.949219 32.289062 201.496094 C 31.808594 204.042969 31.515625 206.226562 31.636719 206.34375 C 31.761719 206.464844 34.214844 207.230469 37.089844 208.042969 C 39.964844 208.859375 42.421875 209.6875 42.550781 209.882812 C 42.839844 210.324219 42.507812 219.15625 42.1875 219.503906 C 41.953125 219.757812 37.777344 220.347656 33.679688 220.707031 L 31.417969 220.902344 L 31.496094 229.671875 L 31.570312 238.445312 L 33.464844 238.660156 C 38.042969 239.183594 42.929688 239.808594 43.003906 239.882812 C 43.066406 239.945312 43.996094 246.527344 44.3125 249.15625 C 44.371094 249.613281 43.632812 249.914062 39.429688 251.144531 C 36.710938 251.941406 34.300781 252.652344 34.082031 252.71875 C 33.800781 252.808594 33.730469 253.128906 33.851562 253.785156 C 33.941406 254.300781 34.480469 257.34375 35.039062 260.542969 C 35.605469 263.738281 36.21875 267.191406 36.402344 268.214844 L 36.742188 270.074219 L 40.371094 269.882812 C 42.367188 269.773438 44.953125 269.605469 46.117188 269.507812 L 48.230469 269.328125 L 49.746094 274.0625 C 50.996094 277.953125 51.195312 278.859375 50.878906 279.148438 C 50.664062 279.34375 48.429688 280.46875 45.90625 281.652344 C 43.386719 282.832031 41.324219 283.972656 41.324219 284.179688 C 41.324219 284.386719 41.503906 284.910156 41.722656 285.34375 C 41.941406 285.773438 43.199219 289.203125 44.515625 292.960938 C 45.832031 296.71875 47.027344 299.917969 47.171875 300.070312 C 47.519531 300.433594 55.28125 298.554688 56.671875 297.769531 C 57.257812 297.4375 57.984375 296.667969 58.324219 296.011719 L 58.933594 294.847656 L 59.011719 236.253906 L 59.085938 177.652344 L 59.972656 177.128906 C 60.949219 176.550781 97.203125 149.472656 103.035156 144.964844 C 105.035156 143.417969 106.972656 141.992188 107.335938 141.800781 C 107.957031 141.46875 108.292969 141.722656 112.4375 145.605469 C 114.878906 147.890625 117.691406 150.503906 118.691406 151.410156 L 120.503906 153.054688 L 120.429688 192.769531 C 120.375 222.101562 120.4375 232.484375 120.679688 232.484375 C 120.863281 232.484375 121.191406 232.234375 121.410156 231.933594 C 121.628906 231.632812 122.898438 230.054688 124.234375 228.429688 L 126.664062 225.476562 L 126.632812 195.761719 C 126.605469 168.628906 126.5625 166.019531 126.128906 165.753906 C 124.261719 164.609375 124.253906 164.585938 124.34375 160.691406 L 124.429688 157.082031 L 126.175781 158.558594 C 127.136719 159.367188 128.675781 160.738281 129.59375 161.601562 L 131.269531 163.171875 L 131.277344 191.214844 L 131.285156 219.253906 L 132.222656 218.214844 C 132.738281 217.640625 133.847656 216.289062 134.6875 215.203125 L 136.21875 213.238281 L 136.21875 174.953125 L 135.390625 174.363281 C 134.574219 173.785156 134.558594 173.707031 134.382812 170.214844 C 134.28125 168.253906 134.25 166.609375 134.304688 166.550781 C 134.359375 166.496094 135.53125 167.390625 136.914062 168.539062 L 139.417969 170.625 L 139.460938 181.710938 C 139.480469 187.808594 139.464844 196.292969 139.425781 200.570312 C 139.375 205.898438 139.449219 208.351562 139.660156 208.351562 C 139.832031 208.351562 140.371094 207.859375 140.863281 207.261719 C 141.578125 206.394531 159.125 184.097656 169.875 170.40625 C 202.394531 128.980469 217.992188 109.28125 219.214844 108.085938 C 222.796875 104.582031 224.847656 105.414062 230.53125 112.660156 C 232.109375 114.675781 236.390625 120.125 240.042969 124.769531 C 243.695312 129.414062 249.5625 136.871094 253.078125 141.34375 C 256.59375 145.8125 263.648438 154.765625 268.761719 161.238281 L 278.050781 173 L 277.367188 173.449219 C 276.992188 173.695312 272.375 177.492188 267.109375 181.890625 C 261.839844 186.289062 257.132812 190.210938 256.644531 190.601562 L 255.753906 191.316406 L 253.285156 188.710938 C 251.925781 187.28125 248.605469 183.6875 245.898438 180.730469 C 238.933594 173.105469 236.851562 171.457031 234.875 172.015625 C 232.539062 172.671875 237.847656 167.472656 140.351562 264.59375 C 105.925781 298.886719 107.695312 296.949219 109.53125 298.308594 C 110.296875 298.878906 110.867188 298.933594 117.78125 299.125 C 137.667969 299.679688 148.792969 302.53125 203.023438 321.007812 C 241.105469 333.984375 260.199219 338.578125 282.199219 340.066406 C 288.089844 340.464844 300.773438 340.460938 306.242188 340.054688 C 320.820312 338.980469 335.125 335.292969 346.820312 329.589844 C 373.71875 316.46875 391.757812 291.96875 400.34375 256.890625 C 403.277344 244.90625 403.847656 241.058594 404.304688 230.140625 C 405.082031 211.601562 402.875 192.449219 397.941406 174.867188 C 388.511719 141.289062 370.449219 112.132812 344.632812 88.832031 C 326.238281 72.230469 304.410156 59.488281 280.886719 51.621094 C 266.550781 46.824219 251.195312 43.757812 235.914062 42.632812 C 231.199219 42.285156 215.0625 42.296875 210.152344 42.652344 M 213.066406 58.285156 L 209.425781 58.757812 L 209.453125 59.628906 C 209.464844 60.109375 209.707031 62.398438 209.984375 64.71875 C 210.261719 67.035156 210.511719 69.191406 210.539062 69.503906 C 210.59375 70.128906 210.621094 70.125 204.546875 70.835938 C 202.820312 71.035156 201.332031 71.121094 201.230469 71.023438 C 201.074219 70.863281 200.824219 68.953125 200.085938 62.203125 C 199.980469 61.21875 199.792969 60.257812 199.671875 60.0625 C 199.503906 59.789062 198.578125 59.824219 195.5625 60.21875 C 193.421875 60.496094 191.460938 60.832031 191.203125 60.964844 C 190.8125 61.164062 190.773438 61.460938 190.976562 62.726562 C 191.105469 63.566406 191.554688 67.332031 191.964844 71.097656 C 192.378906 74.863281 192.972656 80.238281 193.285156 83.035156 C 193.597656 85.832031 193.851562 88.679688 193.851562 89.359375 C 193.851562 90.410156 193.941406 90.59375 194.449219 90.59375 C 195.660156 90.59375 202.738281 89.664062 202.929688 89.476562 C 203.101562 89.3125 202.292969 81.375 201.878906 79.195312 C 201.796875 78.761719 201.871094 78.320312 202.042969 78.214844 C 202.214844 78.109375 203.878906 77.855469 205.746094 77.648438 C 207.609375 77.441406 209.605469 77.1875 210.183594 77.078125 C 210.976562 76.929688 211.277344 76.984375 211.402344 77.308594 C 211.492188 77.546875 211.796875 80.210938 212.074219 83.234375 L 212.582031 88.730469 L 217.410156 88.082031 C 220.0625 87.726562 222.28125 87.425781 222.339844 87.414062 C 222.398438 87.40625 222.367188 86.972656 222.269531 86.453125 C 222.171875 85.929688 221.765625 82.367188 221.367188 78.527344 C 220.601562 71.15625 219.234375 59.496094 219.011719 58.394531 C 218.847656 57.601562 218.382812 57.59375 213.066406 58.285156 M 240.867188 58.683594 C 240.796875 58.882812 240.542969 60.09375 240.300781 61.375 C 240.0625 62.652344 238.8125 68.925781 237.527344 75.308594 C 236.242188 81.695312 235.1875 87.058594 235.1875 87.230469 C 235.1875 87.625 242.457031 89.265625 242.777344 88.945312 C 243.226562 88.492188 245.957031 75.042969 245.957031 73.273438 C 245.957031 73.207031 246.070312 73.148438 246.210938 73.148438 C 246.347656 73.148438 246.550781 73.640625 246.652344 74.238281 C 247.160156 77.175781 248.285156 85.492188 248.460938 87.628906 C 248.695312 90.417969 248.644531 90.367188 251.761719 90.886719 C 254.277344 91.304688 254.074219 91.4375 256.050781 88.085938 C 260.523438 80.496094 261.914062 78.226562 262.601562 77.414062 L 263.382812 76.492188 L 262.675781 79.242188 C 261.941406 82.089844 259.929688 91.546875 259.929688 92.144531 C 259.929688 92.496094 265.484375 93.875 267.0625 93.914062 C 267.777344 93.933594 267.949219 93.808594 268.035156 93.210938 C 268.085938 92.8125 269.363281 86.34375 270.871094 78.839844 C 272.378906 71.339844 273.609375 65.109375 273.609375 65.003906 C 273.609375 64.464844 264.613281 62.589844 264.09375 63.019531 C 263.898438 63.179688 263.332031 64.039062 262.828125 64.925781 C 262.328125 65.8125 260.648438 68.519531 259.097656 70.933594 C 257.550781 73.351562 255.828125 76.082031 255.277344 77.003906 C 254.722656 77.925781 254.136719 78.636719 253.976562 78.582031 C 253.8125 78.527344 253.585938 77.96875 253.472656 77.34375 C 252.953125 74.539062 251.21875 64.667969 250.917969 62.820312 C 250.734375 61.695312 250.472656 60.597656 250.339844 60.378906 C 250.085938 59.972656 243.277344 58.335938 241.800781 58.324219 C 241.355469 58.324219 240.933594 58.484375 240.867188 58.683594 M 174.867188 65.265625 C 172.988281 66.023438 171.382812 66.710938 171.300781 66.796875 C 171.15625 66.9375 174.3125 75.457031 175.953125 79.375 C 176.351562 80.324219 176.621094 81.15625 176.550781 81.226562 C 176.480469 81.292969 175.660156 80.777344 174.730469 80.074219 C 171.289062 77.476562 161.058594 70.824219 160.503906 70.824219 C 160.191406 70.824219 158.890625 71.28125 157.609375 71.835938 C 156.328125 72.394531 155.050781 72.851562 154.765625 72.855469 C 154.480469 72.855469 154.175781 73.042969 154.089844 73.269531 C 154 73.492188 155.136719 76.863281 156.609375 80.753906 C 158.082031 84.648438 160.394531 90.777344 161.75 94.375 C 163.105469 97.972656 164.308594 101.019531 164.429688 101.144531 C 164.671875 101.398438 172.3125 98.523438 172.3125 98.175781 C 172.3125 97.871094 168.464844 87.921875 167.539062 85.832031 C 167.121094 84.894531 166.78125 84.078125 166.78125 84.015625 C 166.78125 83.644531 167.605469 84.121094 169.742188 85.730469 C 171.074219 86.734375 174.511719 89.109375 177.382812 91.011719 C 182.507812 94.410156 182.613281 94.464844 183.640625 94.160156 C 184.578125 93.886719 189.464844 91.816406 189.746094 91.578125 C 189.8125 91.523438 189.527344 90.722656 189.117188 89.800781 C 188.144531 87.621094 179.675781 65.589844 179.425781 64.601562 C 179.3125 64.15625 179.039062 63.855469 178.757812 63.867188 C 178.496094 63.878906 176.742188 64.507812 174.867188 65.265625 M 296.1875 66.730469 C 294.433594 67.324219 292.960938 67.9375 292.910156 68.089844 C 292.859375 68.238281 293.695312 68.808594 294.765625 69.351562 L 296.71875 70.34375 L 298.042969 69.820312 C 298.773438 69.535156 299.753906 69.28125 300.21875 69.261719 C 301.007812 69.226562 301.089844 69.328125 301.402344 70.679688 C 301.894531 72.820312 302.222656 73.25 304.125 74.261719 C 306.296875 75.417969 306.585938 75.4375 306.175781 74.386719 C 306.003906 73.945312 305.558594 72.421875 305.1875 70.996094 C 304.8125 69.574219 304.332031 68.246094 304.121094 68.050781 C 303.613281 67.570312 299.933594 65.582031 299.617188 65.617188 C 299.484375 65.632812 297.9375 66.132812 296.1875 66.730469 M 286.351562 73.539062 C 281.554688 75.171875 277.40625 79.761719 275.324219 85.734375 C 272.476562 93.902344 277.09375 101.761719 286.382812 104.5625 C 290.195312 105.714844 293.640625 105.070312 297.40625 102.507812 C 299.882812 100.824219 301.824219 98.445312 303.457031 95.101562 C 305.699219 90.511719 306.164062 87.117188 305.046875 83.574219 C 303.570312 78.902344 298.878906 74.875 293.230469 73.433594 C 290.335938 72.691406 288.769531 72.71875 286.351562 73.539062 M 141.601562 79.996094 C 139.679688 81.023438 137.980469 81.914062 137.816406 81.976562 C 137.648438 82.042969 137.761719 82.503906 138.078125 83.070312 C 138.382812 83.609375 141.511719 89.484375 145.023438 96.117188 C 148.542969 102.753906 151.523438 108.296875 151.652344 108.433594 C 151.777344 108.570312 153.171875 107.964844 154.746094 107.082031 C 156.324219 106.203125 158.171875 105.191406 158.855469 104.835938 L 160.101562 104.195312 L 159.503906 103.28125 C 159.175781 102.78125 158.296875 101.257812 157.554688 99.898438 C 146.921875 80.511719 146.136719 79.039062 146.125 78.457031 C 146.105469 77.78125 145.109375 78.121094 141.601562 79.996094 M 290.273438 81.011719 C 288.730469 81.347656 287.34375 82.476562 286.003906 84.488281 C 284.496094 86.753906 283.679688 88.554688 283.207031 90.671875 C 282.714844 92.859375 283.457031 94.570312 285.449219 95.828125 C 288.519531 97.777344 290.253906 97.59375 292.730469 95.058594 C 295.96875 91.746094 297.769531 86.261719 296.355469 84.011719 C 295.113281 82.039062 292.1875 80.597656 290.273438 81.011719 M 127.71875 88.554688 C 126.710938 89.351562 124.988281 90.683594 123.894531 91.519531 L 121.902344 93.039062 L 122 100.25 C 122.0625 104.902344 122 107.425781 121.8125 107.363281 C 121.652344 107.308594 120.082031 105.421875 118.320312 103.164062 C 116.558594 100.910156 115.027344 99.054688 114.921875 99.046875 C 114.816406 99.035156 113.964844 99.617188 113.027344 100.339844 C 112.09375 101.058594 110.585938 102.203125 109.671875 102.882812 C 107.941406 104.167969 107.652344 104.789062 108.46875 105.460938 C 108.953125 105.863281 109.664062 106.730469 120.464844 120.171875 C 123.703125 124.207031 126.480469 127.585938 126.632812 127.679688 C 126.789062 127.777344 127.601562 127.238281 128.4375 126.488281 C 129.273438 125.734375 130.777344 124.535156 131.777344 123.824219 C 132.777344 123.109375 133.597656 122.410156 133.597656 122.269531 C 133.597656 122.128906 132.570312 120.734375 131.3125 119.171875 C 130.054688 117.605469 128.894531 116.066406 128.730469 115.746094 C 128.371094 115.042969 128.601562 111.820312 129.011719 111.820312 C 129.171875 111.820312 131.957031 112.734375 135.199219 113.855469 C 138.441406 114.972656 141.238281 115.890625 141.417969 115.890625 C 141.597656 115.890625 142.964844 114.867188 144.453125 113.613281 C 145.941406 112.363281 147.582031 111.09375 148.09375 110.789062 C 148.609375 110.484375 148.992188 110.128906 148.949219 109.996094 C 148.867188 109.746094 147.484375 109.238281 136.363281 105.386719 C 132.679688 104.109375 129.570312 102.972656 129.453125 102.855469 C 129.269531 102.667969 129.542969 94.800781 129.9375 89.066406 C 130.011719 87.988281 129.953125 87.105469 129.8125 87.105469 C 129.671875 87.105469 128.730469 87.757812 127.71875 88.554688 M 315.640625 91.972656 C 310.851562 98.289062 301.769531 109.921875 300.855469 110.90625 L 299.953125 111.878906 L 300.792969 112.503906 C 301.253906 112.847656 302.746094 114.011719 304.105469 115.089844 C 305.464844 116.171875 306.621094 117.054688 306.671875 117.054688 C 306.765625 117.054688 311.5625 111.070312 314.78125 106.945312 C 315.558594 105.945312 316.257812 105.1875 316.332031 105.257812 C 316.40625 105.332031 316.316406 106.9375 316.136719 108.824219 C 315.679688 113.539062 315.210938 123.050781 315.410156 123.5625 C 315.617188 124.109375 320.972656 128.179688 321.316406 128.054688 C 321.464844 128 322.535156 126.714844 323.699219 125.195312 C 327.910156 119.703125 335.796875 109.585938 337.71875 107.203125 C 338.800781 105.867188 339.6875 104.671875 339.6875 104.554688 C 339.6875 104.433594 339.128906 103.96875 338.449219 103.523438 C 337.769531 103.074219 336.332031 102 335.253906 101.132812 C 334.179688 100.265625 333.160156 99.601562 332.992188 99.65625 C 332.695312 99.757812 331.691406 101.035156 326.382812 108.097656 C 324.976562 109.972656 323.726562 111.40625 323.609375 111.285156 C 323.492188 111.167969 323.519531 110.289062 323.671875 109.335938 C 323.824219 108.382812 324.085938 104.265625 324.246094 100.191406 L 324.546875 92.773438 L 323.753906 92.195312 C 323.316406 91.875 322.101562 90.925781 321.0625 90.089844 C 320.019531 89.25 318.953125 88.566406 318.699219 88.5625 C 318.441406 88.5625 317.070312 90.089844 315.640625 91.972656 M 107.984375 198.175781 C 107.984375 233.597656 108.070312 247.3125 108.300781 247.3125 C 109.023438 247.3125 110.414062 245.953125 113.109375 242.621094 L 115.953125 239.097656 L 115.929688 156.214844 L 114.355469 154.761719 C 113.492188 153.964844 111.789062 152.351562 110.570312 151.175781 C 109.355469 150 108.273438 149.035156 108.171875 149.035156 C 108.066406 149.035156 107.984375 171.148438 107.984375 198.175781 M 284.144531 176.460938 C 282.210938 178.234375 274.46875 184.800781 263.164062 194.257812 C 257.816406 198.730469 251.53125 203.992188 249.191406 205.949219 C 246.851562 207.910156 244.785156 209.511719 244.59375 209.511719 C 244.40625 209.511719 241.917969 206.996094 239.070312 203.917969 C 230.296875 194.441406 228.183594 192.359375 227.34375 192.359375 C 225.835938 192.363281 226.308594 191.941406 208.699219 208.941406 C 204.136719 213.347656 195.621094 221.515625 189.777344 227.097656 C 183.933594 232.679688 175.683594 240.589844 171.4375 244.675781 C 167.195312 248.765625 160.835938 254.855469 157.304688 258.214844 C 143.207031 271.621094 120.394531 293.566406 120.273438 293.835938 C 120.183594 294.042969 129.296875 294.945312 145.679688 296.355469 C 149.046875 296.648438 149.140625 296.628906 150.578125 295.464844 C 151.613281 294.632812 173.375 279.351562 191.085938 267.027344 C 193.96875 265.023438 200.191406 260.6875 204.914062 257.394531 C 209.636719 254.101562 214.46875 250.734375 215.65625 249.914062 L 217.8125 248.425781 L 223.8125 254.410156 C 227.109375 257.703125 229.964844 260.394531 230.160156 260.394531 C 230.351562 260.394531 232.25 259.171875 234.378906 257.679688 C 238.960938 254.460938 256.910156 242.078125 264.710938 236.753906 C 268.414062 234.226562 270.34375 233.074219 270.582031 233.246094 C 270.777344 233.386719 273.410156 236.378906 276.429688 239.898438 C 279.445312 243.414062 285.253906 250.144531 289.332031 254.847656 C 296.191406 262.757812 305.746094 273.855469 309.664062 278.46875 C 311.28125 280.367188 311.332031 280.402344 313.054688 280.589844 C 314.015625 280.695312 326.066406 280.742188 339.832031 280.691406 C 362.644531 280.609375 364.960938 280.558594 365.957031 280.109375 C 366.785156 279.734375 367.046875 279.445312 367.046875 278.902344 C 367.046875 277.84375 365.800781 276.144531 354.980469 262.523438 C 337.164062 240.089844 333.25 235.15625 319.734375 218.089844 C 291.019531 181.839844 287.480469 177.355469 286.890625 176.445312 C 286.550781 175.929688 286.101562 175.441406 285.894531 175.359375 C 285.683594 175.277344 284.898438 175.773438 284.144531 176.460938 M 394.445312 224.269531 C 394.292969 224.867188 394.078125 226.078125 393.96875 226.960938 C 393.585938 230.042969 391.746094 239.082031 390.332031 244.839844 C 385.152344 265.902344 376.558594 282.371094 364.453125 294.425781 C 358.546875 300.308594 353.1875 304.191406 345.855469 307.894531 C 336.976562 312.378906 326.730469 315.378906 316.398438 316.519531 C 311.730469 317.039062 299.265625 317.203125 292.96875 316.828125 C 276.789062 315.871094 264.066406 313.648438 226.164062 305.167969 C 208.617188 301.238281 207.792969 301.066406 199.984375 299.632812 C 186.59375 297.175781 178.617188 296.316406 169.257812 296.320312 C 163.84375 296.324219 161.550781 296.445312 159.066406 296.859375 C 154 297.703125 153.828125 297.894531 157.613281 298.496094 C 170.246094 300.511719 190.007812 305.695312 213.792969 313.222656 C 239.628906 321.40625 250.144531 324.296875 263.714844 326.953125 C 278.179688 329.785156 295.132812 331.050781 306.792969 330.167969 C 324.8125 328.8125 340.441406 323.722656 353.671875 314.910156 C 358.933594 311.40625 361.484375 309.308594 366.195312 304.605469 C 370.777344 300.035156 373.164062 297.140625 376.523438 292.089844 C 382.589844 282.957031 387.394531 272.011719 390.496094 260.25 C 393.296875 249.621094 395.867188 233.101562 395.867188 225.722656 C 395.867188 223.390625 395.820312 223.179688 395.296875 223.179688 C 394.878906 223.179688 394.648438 223.476562 394.445312 224.269531 M 223.105469 280.941406 C 216.246094 281.347656 209.644531 282.355469 205.714844 283.597656 L 204.039062 284.125 L 212.121094 284.484375 C 226.828125 285.136719 239.226562 286.367188 260.800781 289.308594 C 269.558594 290.503906 273.65625 290.898438 280.886719 291.246094 C 291.101562 291.738281 298.847656 291.273438 304.015625 289.859375 C 309.140625 288.460938 312.160156 285.519531 311.558594 282.519531 C 311.179688 280.617188 314.441406 280.742188 267.359375 280.800781 C 243.820312 280.832031 223.90625 280.890625 223.105469 280.941406 M 363.265625 284.226562 C 352.144531 290.9375 344.53125 293.867188 331.539062 296.449219 C 320.234375 298.695312 309.164062 299.648438 294.421875 299.644531 C 281.152344 299.644531 273.644531 298.769531 245.667969 293.957031 C 230.363281 291.328125 225.777344 290.636719 215.390625 289.417969 C 210.503906 288.847656 208.304688 288.753906 199.527344 288.753906 C 188.84375 288.753906 187.773438 288.839844 181.335938 290.234375 C 176.6875 291.242188 176.605469 291.273438 177.84375 291.539062 C 178.402344 291.660156 181.089844 291.902344 183.808594 292.074219 C 190.933594 292.527344 198.945312 293.417969 206.371094 294.589844 C 219.605469 296.671875 224.90625 297.699219 247.269531 302.53125 C 267.179688 306.835938 278.628906 308.453125 292.691406 308.957031 C 304.082031 309.367188 314.597656 308.78125 322.074219 307.328125 C 340.117188 303.816406 351.152344 298.527344 360.375 288.96875 C 363.855469 285.363281 365.8125 283.070312 365.398438 283.082031 C 365.265625 283.082031 364.304688 283.597656 363.265625 284.226562 M 124.058594 337.476562 C 122.019531 337.820312 119.199219 338.785156 117.714844 339.652344 C 114.738281 341.394531 112.339844 345.078125 111.683594 348.910156 C 111.398438 350.585938 111.433594 351.167969 111.980469 353.582031 C 114.003906 362.472656 121.753906 371.78125 133.839844 379.816406 C 137.726562 382.40625 146.433594 386.84375 153.101562 389.640625 C 166.835938 395.40625 181.398438 399.496094 195.890625 401.667969 C 205.886719 403.164062 211.773438 403.574219 222.960938 403.558594 C 234.371094 403.539062 239.917969 403.175781 249.53125 401.828125 C 282.289062 397.222656 313.546875 383.308594 339.542969 361.746094 C 343.757812 358.25 351.433594 351.117188 351.214844 350.902344 C 351.140625 350.824219 349.988281 351.546875 348.65625 352.511719 C 343.199219 356.460938 333.027344 361.917969 325.859375 364.746094 C 313.558594 369.597656 299.894531 372.683594 285.730469 373.8125 C 279.824219 374.28125 259.871094 374 253.964844 373.363281 C 239.378906 371.796875 224.039062 368.730469 208.84375 364.34375 C 194.875 360.308594 176.410156 353.53125 164.886719 348.203125 C 146.824219 339.847656 132.46875 336.078125 124.058594 337.476562 "/>
</g>
</svg>
